<svg width="1024" height="1109" viewBox="0 0 1024 1109" fill="none" xmlns="http://www.w3.org/2000/svg">
<g filter="url(#filter0_ii_3_186)">
<rect x="-261" y="-57.1025" width="1295.68" height="1087.66" transform="rotate(-7.08884 -261 -57.1025)" fill="#0B3261"/>
</g>
<circle cx="66.3211" cy="148.938" r="6.43609" fill="#65C7E1"/>
<circle cx="85.6294" cy="148.938" r="6.43609" fill="#65C7E1"/>
<path d="M111.374 148.938C111.374 152.492 108.492 155.374 104.938 155.374C101.383 155.374 98.5016 152.492 98.5016 148.938C98.5016 145.383 101.383 142.502 104.938 142.502C108.492 142.502 111.374 145.383 111.374 148.938Z" fill="#65C7E1"/>
<path d="M111.374 129.629C111.374 133.184 108.492 136.066 104.938 136.066C101.383 136.066 98.5016 133.184 98.5016 129.629C98.5016 126.075 101.383 123.193 104.938 123.193C108.492 123.193 111.374 126.075 111.374 129.629Z" fill="#65C7E1"/>
<path d="M72.7572 206.862C72.7572 210.417 69.8757 213.299 66.3211 213.299C62.7665 213.299 59.885 210.417 59.885 206.862C59.885 203.308 62.7665 200.426 66.3211 200.426C69.8757 200.426 72.7572 203.308 72.7572 206.862Z" fill="#65C7E1"/>
<circle cx="66.3211" cy="168.246" r="6.43609" fill="#65C7E1"/>
<circle cx="85.6294" cy="168.246" r="6.43609" fill="#65C7E1"/>
<path d="M111.374 168.246C111.374 171.8 108.492 174.682 104.938 174.682C101.383 174.682 98.5016 171.8 98.5016 168.246C98.5016 164.691 101.383 161.81 104.938 161.81C108.492 161.81 111.374 164.691 111.374 168.246Z" fill="#65C7E1"/>
<circle cx="66.3211" cy="187.554" r="6.43609" fill="#65C7E1"/>
<circle cx="85.6294" cy="187.554" r="6.43609" fill="#65C7E1"/>
<path d="M111.374 187.554C111.374 191.109 108.492 193.99 104.938 193.99C101.383 193.99 98.5016 191.109 98.5016 187.554C98.5016 184 101.383 181.118 104.938 181.118C108.492 181.118 111.374 184 111.374 187.554Z" fill="#65C7E1"/>
<circle cx="85.6294" cy="206.862" r="6.43609" fill="#0B3261"/>
<circle cx="104.938" cy="206.862" r="6.43609" fill="#0B3261"/>
<path d="M130.682 206.862C130.682 210.417 127.8 213.299 124.246 213.299C120.691 213.299 117.81 210.417 117.81 206.862C117.81 203.308 120.691 200.426 124.246 200.426C127.8 200.426 130.682 203.308 130.682 206.862Z" fill="#0B3261"/>
<path d="M130.682 187.554C130.682 191.109 127.8 193.99 124.246 193.99C120.691 193.99 117.81 191.109 117.81 187.554C117.81 184 120.691 181.118 124.246 181.118C127.8 181.118 130.682 184 130.682 187.554Z" fill="#0B3261"/>
<path d="M92.0655 264.787C92.0655 268.342 89.184 271.223 85.6294 271.223C82.0749 271.223 79.1934 268.342 79.1934 264.787C79.1934 261.233 82.0749 258.351 85.6294 258.351C89.184 258.351 92.0655 261.233 92.0655 264.787Z" fill="#0B3261"/>
<circle cx="85.6294" cy="226.171" r="6.43609" fill="#0B3261"/>
<circle cx="104.938" cy="226.171" r="6.43609" fill="#0B3261"/>
<path d="M130.682 226.171C130.682 229.725 127.8 232.607 124.246 232.607C120.691 232.607 117.81 229.725 117.81 226.171C117.81 222.616 120.691 219.734 124.246 219.734C127.8 219.734 130.682 222.616 130.682 226.171Z" fill="#0B3261"/>
<circle cx="85.6294" cy="245.479" r="6.43609" fill="#0B3261"/>
<circle cx="104.938" cy="245.479" r="6.43609" fill="#0B3261"/>
<path d="M130.682 245.479C130.682 249.033 127.8 251.915 124.246 251.915C120.691 251.915 117.81 249.033 117.81 245.479C117.81 241.924 120.691 239.043 124.246 239.043C127.8 239.043 130.682 241.924 130.682 245.479Z" fill="#0B3261"/>
<circle cx="66.3211" cy="148.938" r="6.43609" fill="#65C7E1"/>
<circle cx="85.6294" cy="148.938" r="6.43609" fill="#65C7E1"/>
<path d="M111.374 148.938C111.374 152.492 108.492 155.374 104.938 155.374C101.383 155.374 98.5016 152.492 98.5016 148.938C98.5016 145.383 101.383 142.502 104.938 142.502C108.492 142.502 111.374 145.383 111.374 148.938Z" fill="#65C7E1"/>
<path d="M111.374 129.629C111.374 133.184 108.492 136.066 104.938 136.066C101.383 136.066 98.5016 133.184 98.5016 129.629C98.5016 126.075 101.383 123.193 104.938 123.193C108.492 123.193 111.374 126.075 111.374 129.629Z" fill="#65C7E1"/>
<path d="M72.7572 206.862C72.7572 210.417 69.8757 213.299 66.3211 213.299C62.7665 213.299 59.885 210.417 59.885 206.862C59.885 203.308 62.7665 200.426 66.3211 200.426C69.8757 200.426 72.7572 203.308 72.7572 206.862Z" fill="#65C7E1"/>
<circle cx="66.3211" cy="168.246" r="6.43609" fill="#65C7E1"/>
<circle cx="85.6294" cy="168.246" r="6.43609" fill="#65C7E1"/>
<path d="M111.374 168.246C111.374 171.8 108.492 174.682 104.938 174.682C101.383 174.682 98.5016 171.8 98.5016 168.246C98.5016 164.691 101.383 161.81 104.938 161.81C108.492 161.81 111.374 164.691 111.374 168.246Z" fill="#65C7E1"/>
<circle cx="66.3211" cy="187.554" r="6.43609" fill="#65C7E1"/>
<circle cx="85.6294" cy="187.554" r="6.43609" fill="#65C7E1"/>
<path d="M111.374 187.554C111.374 191.109 108.492 193.99 104.938 193.99C101.383 193.99 98.5016 191.109 98.5016 187.554C98.5016 184 101.383 181.118 104.938 181.118C108.492 181.118 111.374 184 111.374 187.554Z" fill="#65C7E1"/>
<circle cx="85.6294" cy="206.862" r="6.43609" fill="#B9F1FF"/>
<circle cx="104.938" cy="206.862" r="6.43609" fill="#B9F1FF"/>
<path d="M130.682 206.862C130.682 210.417 127.8 213.299 124.246 213.299C120.691 213.299 117.81 210.417 117.81 206.862C117.81 203.308 120.691 200.426 124.246 200.426C127.8 200.426 130.682 203.308 130.682 206.862Z" fill="#B9F1FF"/>
<path d="M130.682 187.554C130.682 191.109 127.8 193.99 124.246 193.99C120.691 193.99 117.81 191.109 117.81 187.554C117.81 184 120.691 181.118 124.246 181.118C127.8 181.118 130.682 184 130.682 187.554Z" fill="#B9F1FF"/>
<path d="M92.0655 264.787C92.0655 268.342 89.184 271.223 85.6294 271.223C82.0749 271.223 79.1934 268.342 79.1934 264.787C79.1934 261.233 82.0749 258.351 85.6294 258.351C89.184 258.351 92.0655 261.233 92.0655 264.787Z" fill="#B9F1FF"/>
<circle cx="85.6294" cy="226.171" r="6.43609" fill="#B9F1FF"/>
<circle cx="104.938" cy="226.171" r="6.43609" fill="#B9F1FF"/>
<path d="M130.682 226.171C130.682 229.725 127.8 232.607 124.246 232.607C120.691 232.607 117.81 229.725 117.81 226.171C117.81 222.616 120.691 219.734 124.246 219.734C127.8 219.734 130.682 222.616 130.682 226.171Z" fill="#B9F1FF"/>
<circle cx="85.6294" cy="245.479" r="6.43609" fill="#B9F1FF"/>
<circle cx="104.938" cy="245.479" r="6.43609" fill="#B9F1FF"/>
<path d="M130.682 245.479C130.682 249.033 127.8 251.915 124.246 251.915C120.691 251.915 117.81 249.033 117.81 245.479C117.81 241.924 120.691 239.043 124.246 239.043C127.8 239.043 130.682 241.924 130.682 245.479Z" fill="#B9F1FF"/>
<circle cx="47.0127" cy="90.0933" r="6.43609" fill="white"/>
<circle cx="66.3211" cy="90.0933" r="6.43609" fill="white"/>
<path d="M92.0655 90.0933C92.0655 93.6479 89.184 96.5294 85.6294 96.5294C82.0749 96.5294 79.1934 93.6479 79.1934 90.0933C79.1934 86.5388 82.0749 83.6572 85.6294 83.6572C89.184 83.6572 92.0655 86.5388 92.0655 90.0933Z" fill="white"/>
<path d="M92.0655 70.785C92.0655 74.3395 89.184 77.2211 85.6294 77.2211C82.0749 77.2211 79.1934 74.3395 79.1934 70.785C79.1934 67.2304 82.0749 64.3489 85.6294 64.3489C89.184 64.3489 92.0655 67.2304 92.0655 70.785Z" fill="white"/>
<path d="M53.4488 148.018C53.4488 151.573 50.5673 154.454 47.0127 154.454C43.4582 154.454 40.5767 151.573 40.5767 148.018C40.5767 144.463 43.4582 141.582 47.0127 141.582C50.5673 141.582 53.4488 144.463 53.4488 148.018Z" fill="white"/>
<circle cx="47.0127" cy="109.401" r="6.43609" fill="white"/>
<circle cx="66.3211" cy="109.401" r="6.43609" fill="white"/>
<path d="M92.0655 109.401C92.0655 112.956 89.184 115.838 85.6294 115.838C82.0749 115.838 79.1934 112.956 79.1934 109.401C79.1934 105.847 82.0749 102.965 85.6294 102.965C89.184 102.965 92.0655 105.847 92.0655 109.401Z" fill="white"/>
<circle cx="47.0127" cy="128.71" r="6.43609" fill="white"/>
<circle cx="66.3211" cy="128.71" r="6.43609" fill="white"/>
<path d="M92.0655 128.71C92.0655 132.264 89.184 135.146 85.6294 135.146C82.0749 135.146 79.1934 132.264 79.1934 128.71C79.1934 125.155 82.0749 122.273 85.6294 122.273C89.184 122.273 92.0655 125.155 92.0655 128.71Z" fill="white"/>
<circle cx="737.744" cy="272.588" r="6.43609" fill="#65C7E1"/>
<circle cx="757.053" cy="272.588" r="6.43609" fill="#65C7E1"/>
<path d="M782.797 272.588C782.797 276.143 779.916 279.025 776.361 279.025C772.806 279.025 769.925 276.143 769.925 272.588C769.925 269.034 772.806 266.152 776.361 266.152C779.916 266.152 782.797 269.034 782.797 272.588Z" fill="#65C7E1"/>
<path d="M782.797 253.28C782.797 256.835 779.916 259.716 776.361 259.716C772.806 259.716 769.925 256.835 769.925 253.28C769.925 249.726 772.806 246.844 776.361 246.844C779.916 246.844 782.797 249.726 782.797 253.28Z" fill="#65C7E1"/>
<path d="M744.181 330.513C744.181 334.068 741.299 336.949 737.744 336.949C734.19 336.949 731.308 334.068 731.308 330.513C731.308 326.959 734.19 324.077 737.744 324.077C741.299 324.077 744.181 326.959 744.181 330.513Z" fill="#65C7E1"/>
<circle cx="737.744" cy="291.897" r="6.43609" fill="#65C7E1"/>
<circle cx="757.053" cy="291.897" r="6.43609" fill="#65C7E1"/>
<path d="M782.797 291.897C782.797 295.451 779.916 298.333 776.361 298.333C772.806 298.333 769.925 295.451 769.925 291.897C769.925 288.342 772.806 285.461 776.361 285.461C779.916 285.461 782.797 288.342 782.797 291.897Z" fill="#65C7E1"/>
<circle cx="737.744" cy="311.205" r="6.43609" fill="#65C7E1"/>
<circle cx="757.053" cy="311.205" r="6.43609" fill="#65C7E1"/>
<path d="M782.797 311.205C782.797 314.76 779.916 317.641 776.361 317.641C772.806 317.641 769.925 314.76 769.925 311.205C769.925 307.65 772.806 304.769 776.361 304.769C779.916 304.769 782.797 307.65 782.797 311.205Z" fill="#65C7E1"/>
<circle cx="757.053" cy="330.513" r="6.43609" fill="#0B3261"/>
<circle cx="776.361" cy="330.513" r="6.43609" fill="#0B3261"/>
<path d="M802.105 330.513C802.105 334.068 799.224 336.949 795.669 336.949C792.115 336.949 789.233 334.068 789.233 330.513C789.233 326.959 792.115 324.077 795.669 324.077C799.224 324.077 802.105 326.959 802.105 330.513Z" fill="#0B3261"/>
<path d="M802.105 311.205C802.105 314.76 799.224 317.641 795.669 317.641C792.115 317.641 789.233 314.76 789.233 311.205C789.233 307.65 792.115 304.769 795.669 304.769C799.224 304.769 802.105 307.65 802.105 311.205Z" fill="#0B3261"/>
<path d="M763.489 388.438C763.489 391.993 760.607 394.874 757.053 394.874C753.498 394.874 750.617 391.993 750.617 388.438C750.617 384.883 753.498 382.002 757.053 382.002C760.607 382.002 763.489 384.883 763.489 388.438Z" fill="#0B3261"/>
<circle cx="757.053" cy="349.822" r="6.43609" fill="#0B3261"/>
<circle cx="776.361" cy="349.822" r="6.43609" fill="#0B3261"/>
<path d="M802.105 349.822C802.105 353.376 799.224 356.258 795.669 356.258C792.115 356.258 789.233 353.376 789.233 349.822C789.233 346.267 792.115 343.386 795.669 343.386C799.224 343.386 802.105 346.267 802.105 349.822Z" fill="#0B3261"/>
<circle cx="757.053" cy="369.13" r="6.43609" fill="#0B3261"/>
<circle cx="776.361" cy="369.13" r="6.43609" fill="#0B3261"/>
<path d="M802.105 369.13C802.105 372.684 799.224 375.566 795.669 375.566C792.115 375.566 789.233 372.684 789.233 369.13C789.233 365.575 792.115 362.694 795.669 362.694C799.224 362.694 802.105 365.575 802.105 369.13Z" fill="#0B3261"/>
<circle cx="737.744" cy="272.588" r="6.43609" fill="#65C7E1"/>
<circle cx="757.053" cy="272.588" r="6.43609" fill="#65C7E1"/>
<path d="M782.797 272.588C782.797 276.143 779.916 279.025 776.361 279.025C772.806 279.025 769.925 276.143 769.925 272.588C769.925 269.034 772.806 266.152 776.361 266.152C779.916 266.152 782.797 269.034 782.797 272.588Z" fill="#65C7E1"/>
<path d="M782.797 253.28C782.797 256.835 779.916 259.716 776.361 259.716C772.806 259.716 769.925 256.835 769.925 253.28C769.925 249.726 772.806 246.844 776.361 246.844C779.916 246.844 782.797 249.726 782.797 253.28Z" fill="#65C7E1"/>
<path d="M744.181 330.513C744.181 334.068 741.299 336.949 737.744 336.949C734.19 336.949 731.308 334.068 731.308 330.513C731.308 326.959 734.19 324.077 737.744 324.077C741.299 324.077 744.181 326.959 744.181 330.513Z" fill="#65C7E1"/>
<circle cx="737.744" cy="291.897" r="6.43609" fill="#65C7E1"/>
<circle cx="757.053" cy="291.897" r="6.43609" fill="#65C7E1"/>
<path d="M782.797 291.897C782.797 295.451 779.916 298.333 776.361 298.333C772.806 298.333 769.925 295.451 769.925 291.897C769.925 288.342 772.806 285.461 776.361 285.461C779.916 285.461 782.797 288.342 782.797 291.897Z" fill="#65C7E1"/>
<circle cx="737.744" cy="311.205" r="6.43609" fill="#65C7E1"/>
<circle cx="757.053" cy="311.205" r="6.43609" fill="#65C7E1"/>
<path d="M782.797 311.205C782.797 314.76 779.916 317.641 776.361 317.641C772.806 317.641 769.925 314.76 769.925 311.205C769.925 307.65 772.806 304.769 776.361 304.769C779.916 304.769 782.797 307.65 782.797 311.205Z" fill="#65C7E1"/>
<circle cx="757.053" cy="330.513" r="6.43609" fill="#0B3261"/>
<circle cx="776.361" cy="330.513" r="6.43609" fill="#0B3261"/>
<path d="M802.105 330.513C802.105 334.068 799.224 336.949 795.669 336.949C792.115 336.949 789.233 334.068 789.233 330.513C789.233 326.959 792.115 324.077 795.669 324.077C799.224 324.077 802.105 326.959 802.105 330.513Z" fill="#0B3261"/>
<path d="M802.105 311.205C802.105 314.76 799.224 317.641 795.669 317.641C792.115 317.641 789.233 314.76 789.233 311.205C789.233 307.65 792.115 304.769 795.669 304.769C799.224 304.769 802.105 307.65 802.105 311.205Z" fill="#0B3261"/>
<path d="M763.489 388.438C763.489 391.993 760.607 394.874 757.053 394.874C753.498 394.874 750.617 391.993 750.617 388.438C750.617 384.883 753.498 382.002 757.053 382.002C760.607 382.002 763.489 384.883 763.489 388.438Z" fill="#0B3261"/>
<circle cx="757.053" cy="349.822" r="6.43609" fill="#0B3261"/>
<circle cx="776.361" cy="349.822" r="6.43609" fill="#0B3261"/>
<path d="M802.105 349.822C802.105 353.376 799.224 356.258 795.669 356.258C792.115 356.258 789.233 353.376 789.233 349.822C789.233 346.267 792.115 343.386 795.669 343.386C799.224 343.386 802.105 346.267 802.105 349.822Z" fill="#0B3261"/>
<circle cx="757.053" cy="369.13" r="6.43609" fill="#0B3261"/>
<circle cx="776.361" cy="369.13" r="6.43609" fill="#0B3261"/>
<path d="M802.105 369.13C802.105 372.684 799.224 375.566 795.669 375.566C792.115 375.566 789.233 372.684 789.233 369.13C789.233 365.575 792.115 362.694 795.669 362.694C799.224 362.694 802.105 365.575 802.105 369.13Z" fill="#0B3261"/>
<circle cx="718.436" cy="213.744" r="6.43609" fill="white"/>
<circle cx="737.744" cy="213.744" r="6.43609" fill="white"/>
<path d="M763.489 213.744C763.489 217.299 760.607 220.18 757.053 220.18C753.498 220.18 750.617 217.299 750.617 213.744C750.617 210.19 753.498 207.308 757.053 207.308C760.607 207.308 763.489 210.19 763.489 213.744Z" fill="white"/>
<path d="M763.489 194.436C763.489 197.991 760.607 200.872 757.053 200.872C753.498 200.872 750.617 197.991 750.617 194.436C750.617 190.882 753.498 188 757.053 188C760.607 188 763.489 190.882 763.489 194.436Z" fill="white"/>
<path d="M724.872 271.669C724.872 275.224 721.991 278.105 718.436 278.105C714.882 278.105 712 275.224 712 271.669C712 268.115 714.882 265.233 718.436 265.233C721.991 265.233 724.872 268.115 724.872 271.669Z" fill="white"/>
<circle cx="718.436" cy="233.052" r="6.43609" fill="white"/>
<circle cx="737.744" cy="233.052" r="6.43609" fill="white"/>
<path d="M763.489 233.052C763.489 236.607 760.607 239.489 757.053 239.489C753.498 239.489 750.617 236.607 750.617 233.052C750.617 229.498 753.498 226.616 757.053 226.616C760.607 226.616 763.489 229.498 763.489 233.052Z" fill="white"/>
<circle cx="718.436" cy="252.361" r="6.43609" fill="white"/>
<circle cx="737.744" cy="252.361" r="6.43609" fill="white"/>
<path d="M763.489 252.361C763.489 255.915 760.607 258.797 757.053 258.797C753.498 258.797 750.617 255.915 750.617 252.361C750.617 248.806 753.498 245.925 757.053 245.925C760.607 245.925 763.489 248.806 763.489 252.361Z" fill="white"/>
<circle cx="773.831" cy="17.9174" r="110.793" stroke="#57B2D7" stroke-width="40"/>
<circle cx="777.049" cy="14.6995" r="94.7025" stroke="#B9F1FF" stroke-width="20"/>
<circle cx="-63.7798" cy="714.853" r="110.793" stroke="#0B3261" stroke-width="40"/>
<circle cx="25.8657" cy="868.86" r="22.986" stroke="#C1F2FF" stroke-width="10"/>
<path d="M12.6719 388.911L64.6394 528.125L-33.8981 474.526L12.6719 388.911Z" fill="#B9F1FF"/>
<path d="M12.6719 388.911L64.6394 528.125L-33.8981 474.526L12.6719 388.911Z" fill="#B9F1FF"/>
<path d="M625.629 1025.07L708.853 901.966L722.379 987.474L625.629 1025.07Z" fill="#B9F1FF"/>
<path d="M625.629 1025.07L708.853 901.966L722.379 987.474L625.629 1025.07Z" fill="#B9F1FF"/>
<path d="M632.297 921.229L677.675 900.242L643.347 968.32L632.297 921.229Z" fill="#B9F1FF"/>
<path d="M632.297 921.229L677.675 900.242L643.347 968.32L632.297 921.229Z" fill="#174984"/>
<path d="M498.657 131.716L441.087 119.141L483.479 99.2943L498.657 131.716Z" fill="#B9F1FF"/>
<path d="M498.657 131.716L441.087 119.141L483.479 99.2943L498.657 131.716Z" fill="#B9F1FF"/>
<circle cx="450.741" cy="75.8485" r="18.8485" fill="#0B3261"/>
<circle cx="607.966" cy="957.593" r="18.8485" fill="#B9F1FF"/>
<path d="M-9.07324 1030.68L492.022 963.562" stroke="#65C8E2" stroke-width="20" stroke-linecap="round"/>
<path d="M-25 976.119L1036 846" stroke="white" stroke-width="20" stroke-linecap="round"/>
<path d="M-87.2256 1072.06L413.87 1004.94" stroke="#C1F2FF" stroke-width="20" stroke-linecap="round"/>
<path d="M-40.334 1098.72L351.348 1045.39" stroke="#E8FAFF" stroke-width="20" stroke-linecap="round"/>
<path d="M580.748 472.581L1081.84 405.461" stroke="#65C8E2" stroke-width="20" stroke-linecap="round"/>
<path d="M551.786 505.681L1052.88 438.561" stroke="#C1F2FF" stroke-width="20" stroke-linecap="round"/>
<path d="M520.525 540.619L912.207 487.292" stroke="#E8FAFF" stroke-width="20" stroke-linecap="round"/>
<defs>
<filter id="filter0_ii_3_186" x="-261" y="-467" width="1520" height="1489.25" filterUnits="userSpaceOnUse" color-interpolation-filters="sRGB">
<feFlood flood-opacity="0" result="BackgroundImageFix"/>
<feBlend mode="normal" in="SourceGraphic" in2="BackgroundImageFix" result="shape"/>
<feColorMatrix in="SourceAlpha" type="matrix" values="0 0 0 0 0 0 0 0 0 0 0 0 0 0 0 0 0 0 127 0" result="hardAlpha"/>
<feOffset dx="100" dy="-600"/>
<feGaussianBlur stdDeviation="125"/>
<feComposite in2="hardAlpha" operator="arithmetic" k2="-1" k3="1"/>
<feColorMatrix type="matrix" values="0 0 0 0 0.145098 0 0 0 0 0.392157 0 0 0 0 0.686275 0 0 0 1 0"/>
<feBlend mode="normal" in2="shape" result="effect1_innerShadow_3_186"/>
<feColorMatrix in="SourceAlpha" type="matrix" values="0 0 0 0 0 0 0 0 0 0 0 0 0 0 0 0 0 0 127 0" result="hardAlpha"/>
<feOffset dx="100" dy="-400"/>
<feGaussianBlur stdDeviation="125"/>
<feComposite in2="hardAlpha" operator="arithmetic" k2="-1" k3="1"/>
<feColorMatrix type="matrix" values="0 0 0 0 0.407843 0 0 0 0 0.8 0 0 0 0 0.894118 0 0 0 1 0"/>
<feBlend mode="normal" in2="effect1_innerShadow_3_186" result="effect2_innerShadow_3_186"/>
</filter>
</defs>
</svg>
