<svg width="1024" height="1366" viewBox="0 0 1024 1366" fill="none" xmlns="http://www.w3.org/2000/svg">
<g filter="url(#filter0_d_3_186)">
<path d="M8.01632 -294.105C8.42827 -303.739 16.3437 -311 25.9861 -311H1015.76C1024.88 -311 1032.53 -304.211 1033.49 -295.143C1041.15 -222.514 1069.7 84.3427 1031.74 306.068C1018.23 945.914 922.5 1715.5 538 906.5C487.199 1642.3 114.242 528.45 354.729 622.599C595.217 716.749 -0.875409 -177.97 -25.1106 435.5C-47.7423 1008.38 1.41274 -139.679 8.01632 -294.105Z" fill="#68CCE4"/>
</g>
<g filter="url(#filter1_d_3_186)">
<path d="M-50.8851 11.0953C-50.5178 1.43188 -42.5844 -6 -32.914 -6H972.08C972.403 -6 972.634 -5.99698 972.956 -5.976C982.962 -5.32444 1181.02 9.81282 1138.79 184.894C1252.5 611.5 1501.92 403.108 1044.5 285.5C905.5 1035 159.996 77.6432 400.435 144.459C640.873 211.275 -26.0008 -250.474 -50.231 184.894C-72.0386 576.731 -54.5919 108.621 -50.8851 11.0953Z" fill="#CEF6FF" fill-opacity="0.5" shape-rendering="crispEdges"/>
</g>
<g filter="url(#filter2_d_3_186)">
<path d="M1027.2 1367.4C1026.51 1376.79 1018.73 1383.55 1009.31 1383.55L-114.577 1383.55C-114.9 1383.55 -115.131 1383.55 -115.453 1383.53C-125.459 1382.88 -323.518 1367.74 -281.289 1192.66C-267.776 738.574 -572.479 836.392 -115.062 954C-219.5 1153.5 -111.5 866 51.5 1066C214.5 1266 924.723 1593 1008.72 1046C1085.92 543.265 1035.81 1249.77 1027.2 1367.4Z" fill="#0B3261"/>
</g>
<path d="M165.854 82C165.854 82 165.479 121.054 182.58 133.478C199.681 145.903 236.707 133.478 236.707 133.478C236.707 133.478 199.449 145.19 192.917 165.294C186.385 185.397 209.644 216.772 209.644 216.772C209.644 216.772 186.992 184.956 165.854 184.956C144.716 184.956 122.064 216.772 122.064 216.772C122.064 216.772 145.322 185.397 138.79 165.294C132.258 145.19 95 133.478 95 133.478C95 133.478 132.026 145.903 149.127 133.478C166.228 121.054 165.854 82 165.854 82Z" fill="white"/>
<path d="M879.148 218.715C879.148 218.715 867.529 242.711 874.491 255.379C881.453 268.048 907.992 271.204 907.992 271.204C907.992 271.204 881.518 267.54 871.613 278.039C861.709 288.538 866.957 314.704 866.957 314.704C866.957 314.704 862.213 288.444 849.13 282.264C836.047 276.084 812.751 289.099 812.751 289.099C812.751 289.099 836.294 276.533 838.112 262.214C839.931 247.896 820.285 229.774 820.285 229.774C820.285 229.774 839.579 248.268 853.786 245.599C867.993 242.93 879.148 218.715 879.148 218.715Z" fill="white"/>
<path d="M879.148 218.715C879.148 218.715 867.529 242.711 874.491 255.379C881.453 268.048 907.992 271.204 907.992 271.204C907.992 271.204 881.518 267.54 871.613 278.039C861.709 288.538 866.957 314.704 866.957 314.704C866.957 314.704 862.213 288.444 849.13 282.264C836.047 276.084 812.751 289.099 812.751 289.099C812.751 289.099 836.294 276.533 838.112 262.214C839.931 247.896 820.285 229.774 820.285 229.774C820.285 229.774 839.579 248.268 853.786 245.599C867.993 242.93 879.148 218.715 879.148 218.715Z" fill="white"/>
<path opacity="0.2" d="M111.148 1201.71C111.148 1201.71 99.5294 1225.71 106.491 1238.38C113.453 1251.05 139.992 1254.2 139.992 1254.2C139.992 1254.2 113.518 1250.54 103.613 1261.04C93.709 1271.54 98.9566 1297.7 98.9566 1297.7C98.9566 1297.7 94.2127 1271.44 81.1297 1265.26C68.0467 1259.08 44.7505 1272.1 44.7505 1272.1C44.7505 1272.1 68.2935 1259.53 70.112 1245.21C71.9306 1230.9 52.2851 1212.77 52.2851 1212.77C52.2851 1212.77 71.5794 1231.27 85.7863 1228.6C99.9933 1225.93 111.148 1201.71 111.148 1201.71Z" fill="white"/>
<path d="M890.589 284.401C890.589 284.401 895.675 293.02 901.081 293.477C906.488 293.934 912.99 286.295 912.99 286.295C912.99 286.295 906.343 293.809 907.566 299.086C908.789 304.364 918.057 308.162 918.057 308.162C918.057 308.162 908.864 304.187 904.213 306.992C899.562 309.797 898.788 319.783 898.788 319.783C898.788 319.783 899.754 309.813 895.656 306.268C891.559 302.724 881.812 305.098 881.812 305.098C881.812 305.098 891.602 302.911 893.721 297.916C895.839 292.921 890.589 284.401 890.589 284.401Z" fill="white"/>
<path opacity="0.2" d="M58.5893 1285.4C58.5893 1285.4 63.6746 1294.02 69.0812 1294.48C74.4879 1294.93 80.9904 1287.3 80.9904 1287.3C80.9904 1287.3 74.3426 1294.81 75.5656 1300.09C76.7885 1305.36 86.0574 1309.16 86.0574 1309.16C86.0574 1309.16 76.8636 1305.19 72.2128 1307.99C67.562 1310.8 66.7879 1320.78 66.7879 1320.78C66.7879 1320.78 67.7537 1310.81 63.6564 1307.27C59.559 1303.72 49.8117 1306.1 49.8117 1306.1C49.8117 1306.1 59.6024 1303.91 61.7209 1298.92C63.8395 1293.92 58.5893 1285.4 58.5893 1285.4Z" fill="white"/>
<path d="M106.589 83.4012C106.589 83.4012 111.675 92.0201 117.081 92.4772C122.488 92.9343 128.99 85.2953 128.99 85.2953C128.99 85.2953 122.343 92.8087 123.566 98.0865C124.789 103.364 134.057 107.162 134.057 107.162C134.057 107.162 124.864 103.187 120.213 105.992C115.562 108.797 114.788 118.783 114.788 118.783C114.788 118.783 115.754 108.813 111.656 105.268C107.559 101.724 97.8117 104.098 97.8117 104.098C97.8117 104.098 107.602 101.911 109.721 96.9159C111.839 91.9206 106.589 83.4012 106.589 83.4012Z" fill="white"/>
<defs>
<filter id="filter0_d_3_186" x="-47.0244" y="-319" width="1122.02" height="1605.68" filterUnits="userSpaceOnUse" color-interpolation-filters="sRGB">
<feFlood flood-opacity="0" result="BackgroundImageFix"/>
<feColorMatrix in="SourceAlpha" type="matrix" values="0 0 0 0 0 0 0 0 0 0 0 0 0 0 0 0 0 0 127 0" result="hardAlpha"/>
<feOffset dx="4" dy="12"/>
<feGaussianBlur stdDeviation="10"/>
<feComposite in2="hardAlpha" operator="out"/>
<feColorMatrix type="matrix" values="0 0 0 0 0 0 0 0 0 0 0 0 0 0 0 0 0 0 0.25 0"/>
<feBlend mode="normal" in2="BackgroundImageFix" result="effect1_dropShadow_3_186"/>
<feBlend mode="normal" in="SourceGraphic" in2="effect1_dropShadow_3_186" result="shape"/>
</filter>
<filter id="filter1_d_3_186" x="-77" y="-14" width="1410.54" height="619.627" filterUnits="userSpaceOnUse" color-interpolation-filters="sRGB">
<feFlood flood-opacity="0" result="BackgroundImageFix"/>
<feColorMatrix in="SourceAlpha" type="matrix" values="0 0 0 0 0 0 0 0 0 0 0 0 0 0 0 0 0 0 127 0" result="hardAlpha"/>
<feOffset dx="4" dy="12"/>
<feGaussianBlur stdDeviation="10"/>
<feComposite in2="hardAlpha" operator="out"/>
<feColorMatrix type="matrix" values="0 0 0 0 0 0 0 0 0 0 0 0 0 0 0 0 0 0 0.25 0"/>
<feBlend mode="normal" in2="BackgroundImageFix" result="effect1_dropShadow_3_186"/>
<feBlend mode="normal" in="SourceGraphic" in2="effect1_dropShadow_3_186" result="shape"/>
</filter>
<filter id="filter2_d_3_186" x="-384.284" y="847.556" width="1459.41" height="567.999" filterUnits="userSpaceOnUse" color-interpolation-filters="sRGB">
<feFlood flood-opacity="0" result="BackgroundImageFix"/>
<feColorMatrix in="SourceAlpha" type="matrix" values="0 0 0 0 0 0 0 0 0 0 0 0 0 0 0 0 0 0 127 0" result="hardAlpha"/>
<feOffset dx="4" dy="12"/>
<feGaussianBlur stdDeviation="10"/>
<feComposite in2="hardAlpha" operator="out"/>
<feColorMatrix type="matrix" values="0 0 0 0 0 0 0 0 0 0 0 0 0 0 0 0 0 0 0.25 0"/>
<feBlend mode="normal" in2="BackgroundImageFix" result="effect1_dropShadow_3_186"/>
<feBlend mode="normal" in="SourceGraphic" in2="effect1_dropShadow_3_186" result="shape"/>
</filter>
</defs>
</svg>
