<svg width="1024" height="1267" viewBox="0 0 1024 1267" fill="none" xmlns="http://www.w3.org/2000/svg">
<g filter="url(#filter0_i_3_186)">
<path d="M-480.254 -234L1202.5 -27.5L1180 427L-104.5 1266.5L-480.254 -234Z" fill="#2564AF"/>
</g>
<circle cx="86" cy="166" r="7" fill="#65C7E1"/>
<circle cx="107" cy="166" r="7" fill="#65C7E1"/>
<path d="M135 166C135 169.866 131.866 173 128 173C124.134 173 121 169.866 121 166C121 162.134 124.134 159 128 159C131.866 159 135 162.134 135 166Z" fill="#65C7E1"/>
<path d="M135 145C135 148.866 131.866 152 128 152C124.134 152 121 148.866 121 145C121 141.134 124.134 138 128 138C131.866 138 135 141.134 135 145Z" fill="#65C7E1"/>
<path d="M93 229C93 232.866 89.866 236 86 236C82.134 236 79 232.866 79 229C79 225.134 82.134 222 86 222C89.866 222 93 225.134 93 229Z" fill="#65C7E1"/>
<circle cx="86" cy="187" r="7" fill="#65C7E1"/>
<circle cx="107" cy="187" r="7" fill="#65C7E1"/>
<path d="M135 187C135 190.866 131.866 194 128 194C124.134 194 121 190.866 121 187C121 183.134 124.134 180 128 180C131.866 180 135 183.134 135 187Z" fill="#65C7E1"/>
<circle cx="86" cy="208" r="7" fill="#65C7E1"/>
<circle cx="107" cy="208" r="7" fill="#65C7E1"/>
<path d="M135 208C135 211.866 131.866 215 128 215C124.134 215 121 211.866 121 208C121 204.134 124.134 201 128 201C131.866 201 135 204.134 135 208Z" fill="#65C7E1"/>
<circle cx="107" cy="229" r="7" fill="#0B3261"/>
<circle cx="128" cy="229" r="7" fill="#0B3261"/>
<path d="M156 229C156 232.866 152.866 236 149 236C145.134 236 142 232.866 142 229C142 225.134 145.134 222 149 222C152.866 222 156 225.134 156 229Z" fill="#0B3261"/>
<path d="M156 208C156 211.866 152.866 215 149 215C145.134 215 142 211.866 142 208C142 204.134 145.134 201 149 201C152.866 201 156 204.134 156 208Z" fill="#0B3261"/>
<path d="M114 292C114 295.866 110.866 299 107 299C103.134 299 100 295.866 100 292C100 288.134 103.134 285 107 285C110.866 285 114 288.134 114 292Z" fill="#0B3261"/>
<circle cx="107" cy="250" r="7" fill="#0B3261"/>
<circle cx="128" cy="250" r="7" fill="#0B3261"/>
<path d="M156 250C156 253.866 152.866 257 149 257C145.134 257 142 253.866 142 250C142 246.134 145.134 243 149 243C152.866 243 156 246.134 156 250Z" fill="#0B3261"/>
<circle cx="107" cy="271" r="7" fill="#0B3261"/>
<circle cx="128" cy="271" r="7" fill="#0B3261"/>
<path d="M156 271C156 274.866 152.866 278 149 278C145.134 278 142 274.866 142 271C142 267.134 145.134 264 149 264C152.866 264 156 267.134 156 271Z" fill="#0B3261"/>
<circle cx="86" cy="166" r="7" fill="#65C7E1"/>
<circle cx="107" cy="166" r="7" fill="#65C7E1"/>
<path d="M135 166C135 169.866 131.866 173 128 173C124.134 173 121 169.866 121 166C121 162.134 124.134 159 128 159C131.866 159 135 162.134 135 166Z" fill="#65C7E1"/>
<path d="M135 145C135 148.866 131.866 152 128 152C124.134 152 121 148.866 121 145C121 141.134 124.134 138 128 138C131.866 138 135 141.134 135 145Z" fill="#65C7E1"/>
<path d="M93 229C93 232.866 89.866 236 86 236C82.134 236 79 232.866 79 229C79 225.134 82.134 222 86 222C89.866 222 93 225.134 93 229Z" fill="#65C7E1"/>
<circle cx="86" cy="187" r="7" fill="#65C7E1"/>
<circle cx="107" cy="187" r="7" fill="#65C7E1"/>
<path d="M135 187C135 190.866 131.866 194 128 194C124.134 194 121 190.866 121 187C121 183.134 124.134 180 128 180C131.866 180 135 183.134 135 187Z" fill="#65C7E1"/>
<circle cx="86" cy="208" r="7" fill="#65C7E1"/>
<circle cx="107" cy="208" r="7" fill="#65C7E1"/>
<path d="M135 208C135 211.866 131.866 215 128 215C124.134 215 121 211.866 121 208C121 204.134 124.134 201 128 201C131.866 201 135 204.134 135 208Z" fill="#65C7E1"/>
<circle cx="107" cy="229" r="7" fill="#0B3261"/>
<circle cx="128" cy="229" r="7" fill="#0B3261"/>
<path d="M156 229C156 232.866 152.866 236 149 236C145.134 236 142 232.866 142 229C142 225.134 145.134 222 149 222C152.866 222 156 225.134 156 229Z" fill="#0B3261"/>
<path d="M156 208C156 211.866 152.866 215 149 215C145.134 215 142 211.866 142 208C142 204.134 145.134 201 149 201C152.866 201 156 204.134 156 208Z" fill="#0B3261"/>
<path d="M114 292C114 295.866 110.866 299 107 299C103.134 299 100 295.866 100 292C100 288.134 103.134 285 107 285C110.866 285 114 288.134 114 292Z" fill="#0B3261"/>
<circle cx="107" cy="250" r="7" fill="#0B3261"/>
<circle cx="128" cy="250" r="7" fill="#0B3261"/>
<path d="M156 250C156 253.866 152.866 257 149 257C145.134 257 142 253.866 142 250C142 246.134 145.134 243 149 243C152.866 243 156 246.134 156 250Z" fill="#0B3261"/>
<circle cx="107" cy="271" r="7" fill="#0B3261"/>
<circle cx="128" cy="271" r="7" fill="#0B3261"/>
<path d="M156 271C156 274.866 152.866 278 149 278C145.134 278 142 274.866 142 271C142 267.134 145.134 264 149 264C152.866 264 156 267.134 156 271Z" fill="#0B3261"/>
<circle cx="65" cy="102" r="7" fill="white"/>
<circle cx="86" cy="102" r="7" fill="white"/>
<path d="M114 102C114 105.866 110.866 109 107 109C103.134 109 100 105.866 100 102C100 98.134 103.134 95 107 95C110.866 95 114 98.134 114 102Z" fill="white"/>
<path d="M114 81C114 84.866 110.866 88 107 88C103.134 88 100 84.866 100 81C100 77.134 103.134 74 107 74C110.866 74 114 77.134 114 81Z" fill="white"/>
<path d="M72 165C72 168.866 68.866 172 65 172C61.134 172 58 168.866 58 165C58 161.134 61.134 158 65 158C68.866 158 72 161.134 72 165Z" fill="white"/>
<circle cx="65" cy="123" r="7" fill="white"/>
<circle cx="86" cy="123" r="7" fill="white"/>
<path d="M114 123C114 126.866 110.866 130 107 130C103.134 130 100 126.866 100 123C100 119.134 103.134 116 107 116C110.866 116 114 119.134 114 123Z" fill="white"/>
<circle cx="65" cy="144" r="7" fill="white"/>
<circle cx="86" cy="144" r="7" fill="white"/>
<path d="M114 144C114 147.866 110.866 151 107 151C103.134 151 100 147.866 100 144C100 140.134 103.134 137 107 137C110.866 137 114 140.134 114 144Z" fill="white"/>
<circle cx="941" cy="274" r="7" fill="#65C7E1"/>
<circle cx="962" cy="274" r="7" fill="#65C7E1"/>
<path d="M990 274C990 277.866 986.866 281 983 281C979.134 281 976 277.866 976 274C976 270.134 979.134 267 983 267C986.866 267 990 270.134 990 274Z" fill="#65C7E1"/>
<path d="M990 253C990 256.866 986.866 260 983 260C979.134 260 976 256.866 976 253C976 249.134 979.134 246 983 246C986.866 246 990 249.134 990 253Z" fill="#65C7E1"/>
<path d="M948 337C948 340.866 944.866 344 941 344C937.134 344 934 340.866 934 337C934 333.134 937.134 330 941 330C944.866 330 948 333.134 948 337Z" fill="#65C7E1"/>
<circle cx="941" cy="295" r="7" fill="#65C7E1"/>
<circle cx="962" cy="295" r="7" fill="#65C7E1"/>
<path d="M990 295C990 298.866 986.866 302 983 302C979.134 302 976 298.866 976 295C976 291.134 979.134 288 983 288C986.866 288 990 291.134 990 295Z" fill="#65C7E1"/>
<circle cx="941" cy="316" r="7" fill="#65C7E1"/>
<circle cx="962" cy="316" r="7" fill="#65C7E1"/>
<path d="M990 316C990 319.866 986.866 323 983 323C979.134 323 976 319.866 976 316C976 312.134 979.134 309 983 309C986.866 309 990 312.134 990 316Z" fill="#65C7E1"/>
<circle cx="962" cy="337" r="7" fill="#0B3261"/>
<circle cx="983" cy="337" r="7" fill="#0B3261"/>
<path d="M1011 337C1011 340.866 1007.87 344 1004 344C1000.13 344 997 340.866 997 337C997 333.134 1000.13 330 1004 330C1007.87 330 1011 333.134 1011 337Z" fill="#0B3261"/>
<path d="M1011 316C1011 319.866 1007.87 323 1004 323C1000.13 323 997 319.866 997 316C997 312.134 1000.13 309 1004 309C1007.87 309 1011 312.134 1011 316Z" fill="#0B3261"/>
<path d="M969 400C969 403.866 965.866 407 962 407C958.134 407 955 403.866 955 400C955 396.134 958.134 393 962 393C965.866 393 969 396.134 969 400Z" fill="#0B3261"/>
<circle cx="962" cy="358" r="7" fill="#0B3261"/>
<circle cx="983" cy="358" r="7" fill="#0B3261"/>
<path d="M1011 358C1011 361.866 1007.87 365 1004 365C1000.13 365 997 361.866 997 358C997 354.134 1000.13 351 1004 351C1007.87 351 1011 354.134 1011 358Z" fill="#0B3261"/>
<circle cx="962" cy="379" r="7" fill="#0B3261"/>
<circle cx="983" cy="379" r="7" fill="#0B3261"/>
<path d="M1011 379C1011 382.866 1007.87 386 1004 386C1000.13 386 997 382.866 997 379C997 375.134 1000.13 372 1004 372C1007.87 372 1011 375.134 1011 379Z" fill="#0B3261"/>
<circle cx="941" cy="274" r="7" fill="#65C7E1"/>
<circle cx="962" cy="274" r="7" fill="#65C7E1"/>
<path d="M990 274C990 277.866 986.866 281 983 281C979.134 281 976 277.866 976 274C976 270.134 979.134 267 983 267C986.866 267 990 270.134 990 274Z" fill="#65C7E1"/>
<path d="M990 253C990 256.866 986.866 260 983 260C979.134 260 976 256.866 976 253C976 249.134 979.134 246 983 246C986.866 246 990 249.134 990 253Z" fill="#65C7E1"/>
<path d="M948 337C948 340.866 944.866 344 941 344C937.134 344 934 340.866 934 337C934 333.134 937.134 330 941 330C944.866 330 948 333.134 948 337Z" fill="#65C7E1"/>
<circle cx="941" cy="295" r="7" fill="#65C7E1"/>
<circle cx="962" cy="295" r="7" fill="#65C7E1"/>
<path d="M990 295C990 298.866 986.866 302 983 302C979.134 302 976 298.866 976 295C976 291.134 979.134 288 983 288C986.866 288 990 291.134 990 295Z" fill="#65C7E1"/>
<circle cx="941" cy="316" r="7" fill="#65C7E1"/>
<circle cx="962" cy="316" r="7" fill="#65C7E1"/>
<path d="M990 316C990 319.866 986.866 323 983 323C979.134 323 976 319.866 976 316C976 312.134 979.134 309 983 309C986.866 309 990 312.134 990 316Z" fill="#65C7E1"/>
<circle cx="962" cy="337" r="7" fill="#0B3261"/>
<circle cx="983" cy="337" r="7" fill="#0B3261"/>
<path d="M1011 337C1011 340.866 1007.87 344 1004 344C1000.13 344 997 340.866 997 337C997 333.134 1000.13 330 1004 330C1007.87 330 1011 333.134 1011 337Z" fill="#0B3261"/>
<path d="M1011 316C1011 319.866 1007.87 323 1004 323C1000.13 323 997 319.866 997 316C997 312.134 1000.13 309 1004 309C1007.87 309 1011 312.134 1011 316Z" fill="#0B3261"/>
<path d="M969 400C969 403.866 965.866 407 962 407C958.134 407 955 403.866 955 400C955 396.134 958.134 393 962 393C965.866 393 969 396.134 969 400Z" fill="#0B3261"/>
<circle cx="962" cy="358" r="7" fill="#0B3261"/>
<circle cx="983" cy="358" r="7" fill="#0B3261"/>
<path d="M1011 358C1011 361.866 1007.87 365 1004 365C1000.13 365 997 361.866 997 358C997 354.134 1000.13 351 1004 351C1007.87 351 1011 354.134 1011 358Z" fill="#0B3261"/>
<circle cx="962" cy="379" r="7" fill="#0B3261"/>
<circle cx="983" cy="379" r="7" fill="#0B3261"/>
<path d="M1011 379C1011 382.866 1007.87 386 1004 386C1000.13 386 997 382.866 997 379C997 375.134 1000.13 372 1004 372C1007.87 372 1011 375.134 1011 379Z" fill="#0B3261"/>
<circle cx="920" cy="210" r="7" fill="white"/>
<circle cx="941" cy="210" r="7" fill="white"/>
<path d="M969 210C969 213.866 965.866 217 962 217C958.134 217 955 213.866 955 210C955 206.134 958.134 203 962 203C965.866 203 969 206.134 969 210Z" fill="white"/>
<path d="M969 189C969 192.866 965.866 196 962 196C958.134 196 955 192.866 955 189C955 185.134 958.134 182 962 182C965.866 182 969 185.134 969 189Z" fill="white"/>
<path d="M927 273C927 276.866 923.866 280 920 280C916.134 280 913 276.866 913 273C913 269.134 916.134 266 920 266C923.866 266 927 269.134 927 273Z" fill="white"/>
<circle cx="920" cy="231" r="7" fill="white"/>
<circle cx="941" cy="231" r="7" fill="white"/>
<path d="M969 231C969 234.866 965.866 238 962 238C958.134 238 955 234.866 955 231C955 227.134 958.134 224 962 224C965.866 224 969 227.134 969 231Z" fill="white"/>
<circle cx="920" cy="252" r="7" fill="white"/>
<circle cx="941" cy="252" r="7" fill="white"/>
<path d="M969 252C969 255.866 965.866 259 962 259C958.134 259 955 255.866 955 252C955 248.134 958.134 245 962 245C965.866 245 969 248.134 969 252Z" fill="white"/>
<circle cx="855.5" cy="23.5" r="120.5" stroke="#57B2D7" stroke-width="40"/>
<circle cx="859" cy="20" r="103" stroke="#B9F1FF" stroke-width="20"/>
<circle cx="-55.5" cy="781.5" r="120.5" stroke="#0B3261" stroke-width="40"/>
<path d="M27.6503 427L84.171 578.411L-23 520.116L27.6503 427Z" fill="#B9F1FF"/>
<path d="M27.6503 427L84.171 578.411L-23 520.116L27.6503 427Z" fill="#B9F1FF"/>
<path d="M711.615 94.262L649 80.5855L695.106 59.0001L711.615 94.262Z" fill="#B9F1FF"/>
<path d="M711.615 94.262L649 80.5855L695.106 59.0001L711.615 94.262Z" fill="#B9F1FF"/>
<defs>
<filter id="filter0_i_3_186" x="-480.254" y="-434" width="1741.75" height="1700.5" filterUnits="userSpaceOnUse" color-interpolation-filters="sRGB">
<feFlood flood-opacity="0" result="BackgroundImageFix"/>
<feBlend mode="normal" in="SourceGraphic" in2="BackgroundImageFix" result="shape"/>
<feColorMatrix in="SourceAlpha" type="matrix" values="0 0 0 0 0 0 0 0 0 0 0 0 0 0 0 0 0 0 127 0" result="hardAlpha"/>
<feOffset dx="59" dy="-400"/>
<feGaussianBlur stdDeviation="100"/>
<feComposite in2="hardAlpha" operator="arithmetic" k2="-1" k3="1"/>
<feColorMatrix type="matrix" values="0 0 0 0 0.341176 0 0 0 0 0.698039 0 0 0 0 0.843137 0 0 0 1 0"/>
<feBlend mode="normal" in2="shape" result="effect1_innerShadow_3_186"/>
</filter>
</defs>
</svg>
