<svg width="1024" height="1298" viewBox="0 0 1024 1298" fill="none" xmlns="http://www.w3.org/2000/svg">
<g filter="url(#filter0_i_666_12142)">
<path d="M-480.254 -203L1202.5 3.5L1180 458L-104.5 1297.5L-480.254 -203Z" fill="#2564AF"/>
</g>
<circle cx="86" cy="197" r="7" fill="#65C7E1"/>
<circle cx="107" cy="197" r="7" fill="#65C7E1"/>
<path d="M135 197C135 200.866 131.866 204 128 204C124.134 204 121 200.866 121 197C121 193.134 124.134 190 128 190C131.866 190 135 193.134 135 197Z" fill="#65C7E1"/>
<path d="M135 176C135 179.866 131.866 183 128 183C124.134 183 121 179.866 121 176C121 172.134 124.134 169 128 169C131.866 169 135 172.134 135 176Z" fill="#65C7E1"/>
<path d="M93 260C93 263.866 89.866 267 86 267C82.134 267 79 263.866 79 260C79 256.134 82.134 253 86 253C89.866 253 93 256.134 93 260Z" fill="#65C7E1"/>
<circle cx="86" cy="218" r="7" fill="#65C7E1"/>
<circle cx="107" cy="218" r="7" fill="#65C7E1"/>
<path d="M135 218C135 221.866 131.866 225 128 225C124.134 225 121 221.866 121 218C121 214.134 124.134 211 128 211C131.866 211 135 214.134 135 218Z" fill="#65C7E1"/>
<circle cx="86" cy="239" r="7" fill="#65C7E1"/>
<circle cx="107" cy="239" r="7" fill="#65C7E1"/>
<path d="M135 239C135 242.866 131.866 246 128 246C124.134 246 121 242.866 121 239C121 235.134 124.134 232 128 232C131.866 232 135 235.134 135 239Z" fill="#65C7E1"/>
<circle cx="107" cy="260" r="7" fill="#0B3261"/>
<circle cx="128" cy="260" r="7" fill="#0B3261"/>
<path d="M156 260C156 263.866 152.866 267 149 267C145.134 267 142 263.866 142 260C142 256.134 145.134 253 149 253C152.866 253 156 256.134 156 260Z" fill="#0B3261"/>
<path d="M156 239C156 242.866 152.866 246 149 246C145.134 246 142 242.866 142 239C142 235.134 145.134 232 149 232C152.866 232 156 235.134 156 239Z" fill="#0B3261"/>
<path d="M114 323C114 326.866 110.866 330 107 330C103.134 330 100 326.866 100 323C100 319.134 103.134 316 107 316C110.866 316 114 319.134 114 323Z" fill="#0B3261"/>
<circle cx="107" cy="281" r="7" fill="#0B3261"/>
<circle cx="128" cy="281" r="7" fill="#0B3261"/>
<path d="M156 281C156 284.866 152.866 288 149 288C145.134 288 142 284.866 142 281C142 277.134 145.134 274 149 274C152.866 274 156 277.134 156 281Z" fill="#0B3261"/>
<circle cx="107" cy="302" r="7" fill="#0B3261"/>
<circle cx="128" cy="302" r="7" fill="#0B3261"/>
<path d="M156 302C156 305.866 152.866 309 149 309C145.134 309 142 305.866 142 302C142 298.134 145.134 295 149 295C152.866 295 156 298.134 156 302Z" fill="#0B3261"/>
<circle cx="86" cy="197" r="7" fill="#65C7E1"/>
<circle cx="107" cy="197" r="7" fill="#65C7E1"/>
<path d="M135 197C135 200.866 131.866 204 128 204C124.134 204 121 200.866 121 197C121 193.134 124.134 190 128 190C131.866 190 135 193.134 135 197Z" fill="#65C7E1"/>
<path d="M135 176C135 179.866 131.866 183 128 183C124.134 183 121 179.866 121 176C121 172.134 124.134 169 128 169C131.866 169 135 172.134 135 176Z" fill="#65C7E1"/>
<path d="M93 260C93 263.866 89.866 267 86 267C82.134 267 79 263.866 79 260C79 256.134 82.134 253 86 253C89.866 253 93 256.134 93 260Z" fill="#65C7E1"/>
<circle cx="86" cy="218" r="7" fill="#65C7E1"/>
<circle cx="107" cy="218" r="7" fill="#65C7E1"/>
<path d="M135 218C135 221.866 131.866 225 128 225C124.134 225 121 221.866 121 218C121 214.134 124.134 211 128 211C131.866 211 135 214.134 135 218Z" fill="#65C7E1"/>
<circle cx="86" cy="239" r="7" fill="#65C7E1"/>
<circle cx="107" cy="239" r="7" fill="#65C7E1"/>
<path d="M135 239C135 242.866 131.866 246 128 246C124.134 246 121 242.866 121 239C121 235.134 124.134 232 128 232C131.866 232 135 235.134 135 239Z" fill="#65C7E1"/>
<circle cx="107" cy="260" r="7" fill="#0B3261"/>
<circle cx="128" cy="260" r="7" fill="#0B3261"/>
<path d="M156 260C156 263.866 152.866 267 149 267C145.134 267 142 263.866 142 260C142 256.134 145.134 253 149 253C152.866 253 156 256.134 156 260Z" fill="#0B3261"/>
<path d="M156 239C156 242.866 152.866 246 149 246C145.134 246 142 242.866 142 239C142 235.134 145.134 232 149 232C152.866 232 156 235.134 156 239Z" fill="#0B3261"/>
<path d="M114 323C114 326.866 110.866 330 107 330C103.134 330 100 326.866 100 323C100 319.134 103.134 316 107 316C110.866 316 114 319.134 114 323Z" fill="#0B3261"/>
<circle cx="107" cy="281" r="7" fill="#0B3261"/>
<circle cx="128" cy="281" r="7" fill="#0B3261"/>
<path d="M156 281C156 284.866 152.866 288 149 288C145.134 288 142 284.866 142 281C142 277.134 145.134 274 149 274C152.866 274 156 277.134 156 281Z" fill="#0B3261"/>
<circle cx="107" cy="302" r="7" fill="#0B3261"/>
<circle cx="128" cy="302" r="7" fill="#0B3261"/>
<path d="M156 302C156 305.866 152.866 309 149 309C145.134 309 142 305.866 142 302C142 298.134 145.134 295 149 295C152.866 295 156 298.134 156 302Z" fill="#0B3261"/>
<circle cx="65" cy="133" r="7" fill="white"/>
<circle cx="86" cy="133" r="7" fill="white"/>
<path d="M114 133C114 136.866 110.866 140 107 140C103.134 140 100 136.866 100 133C100 129.134 103.134 126 107 126C110.866 126 114 129.134 114 133Z" fill="white"/>
<path d="M114 112C114 115.866 110.866 119 107 119C103.134 119 100 115.866 100 112C100 108.134 103.134 105 107 105C110.866 105 114 108.134 114 112Z" fill="white"/>
<path d="M72 196C72 199.866 68.866 203 65 203C61.134 203 58 199.866 58 196C58 192.134 61.134 189 65 189C68.866 189 72 192.134 72 196Z" fill="white"/>
<circle cx="65" cy="154" r="7" fill="white"/>
<circle cx="86" cy="154" r="7" fill="white"/>
<path d="M114 154C114 157.866 110.866 161 107 161C103.134 161 100 157.866 100 154C100 150.134 103.134 147 107 147C110.866 147 114 150.134 114 154Z" fill="white"/>
<circle cx="65" cy="175" r="7" fill="white"/>
<circle cx="86" cy="175" r="7" fill="white"/>
<path d="M114 175C114 178.866 110.866 182 107 182C103.134 182 100 178.866 100 175C100 171.134 103.134 168 107 168C110.866 168 114 171.134 114 175Z" fill="white"/>
<circle cx="892" cy="324" r="7" fill="#65C7E1"/>
<circle cx="913" cy="324" r="7" fill="#65C7E1"/>
<path d="M941 324C941 327.866 937.866 331 934 331C930.134 331 927 327.866 927 324C927 320.134 930.134 317 934 317C937.866 317 941 320.134 941 324Z" fill="#65C7E1"/>
<path d="M941 303C941 306.866 937.866 310 934 310C930.134 310 927 306.866 927 303C927 299.134 930.134 296 934 296C937.866 296 941 299.134 941 303Z" fill="#65C7E1"/>
<path d="M899 387C899 390.866 895.866 394 892 394C888.134 394 885 390.866 885 387C885 383.134 888.134 380 892 380C895.866 380 899 383.134 899 387Z" fill="#65C7E1"/>
<circle cx="892" cy="345" r="7" fill="#65C7E1"/>
<circle cx="913" cy="345" r="7" fill="#65C7E1"/>
<path d="M941 345C941 348.866 937.866 352 934 352C930.134 352 927 348.866 927 345C927 341.134 930.134 338 934 338C937.866 338 941 341.134 941 345Z" fill="#65C7E1"/>
<circle cx="892" cy="366" r="7" fill="#65C7E1"/>
<circle cx="913" cy="366" r="7" fill="#65C7E1"/>
<path d="M941 366C941 369.866 937.866 373 934 373C930.134 373 927 369.866 927 366C927 362.134 930.134 359 934 359C937.866 359 941 362.134 941 366Z" fill="#65C7E1"/>
<circle cx="913" cy="387" r="7" fill="#0B3261"/>
<circle cx="934" cy="387" r="7" fill="#0B3261"/>
<path d="M962 387C962 390.866 958.866 394 955 394C951.134 394 948 390.866 948 387C948 383.134 951.134 380 955 380C958.866 380 962 383.134 962 387Z" fill="#0B3261"/>
<path d="M962 366C962 369.866 958.866 373 955 373C951.134 373 948 369.866 948 366C948 362.134 951.134 359 955 359C958.866 359 962 362.134 962 366Z" fill="#0B3261"/>
<path d="M920 450C920 453.866 916.866 457 913 457C909.134 457 906 453.866 906 450C906 446.134 909.134 443 913 443C916.866 443 920 446.134 920 450Z" fill="#0B3261"/>
<circle cx="913" cy="408" r="7" fill="#0B3261"/>
<circle cx="934" cy="408" r="7" fill="#0B3261"/>
<path d="M962 408C962 411.866 958.866 415 955 415C951.134 415 948 411.866 948 408C948 404.134 951.134 401 955 401C958.866 401 962 404.134 962 408Z" fill="#0B3261"/>
<circle cx="913" cy="429" r="7" fill="#0B3261"/>
<circle cx="934" cy="429" r="7" fill="#0B3261"/>
<path d="M962 429C962 432.866 958.866 436 955 436C951.134 436 948 432.866 948 429C948 425.134 951.134 422 955 422C958.866 422 962 425.134 962 429Z" fill="#0B3261"/>
<circle cx="892" cy="324" r="7" fill="#65C7E1"/>
<circle cx="913" cy="324" r="7" fill="#65C7E1"/>
<path d="M941 324C941 327.866 937.866 331 934 331C930.134 331 927 327.866 927 324C927 320.134 930.134 317 934 317C937.866 317 941 320.134 941 324Z" fill="#65C7E1"/>
<path d="M941 303C941 306.866 937.866 310 934 310C930.134 310 927 306.866 927 303C927 299.134 930.134 296 934 296C937.866 296 941 299.134 941 303Z" fill="#65C7E1"/>
<path d="M899 387C899 390.866 895.866 394 892 394C888.134 394 885 390.866 885 387C885 383.134 888.134 380 892 380C895.866 380 899 383.134 899 387Z" fill="#65C7E1"/>
<circle cx="892" cy="345" r="7" fill="#65C7E1"/>
<circle cx="913" cy="345" r="7" fill="#65C7E1"/>
<path d="M941 345C941 348.866 937.866 352 934 352C930.134 352 927 348.866 927 345C927 341.134 930.134 338 934 338C937.866 338 941 341.134 941 345Z" fill="#65C7E1"/>
<circle cx="892" cy="366" r="7" fill="#65C7E1"/>
<circle cx="913" cy="366" r="7" fill="#65C7E1"/>
<path d="M941 366C941 369.866 937.866 373 934 373C930.134 373 927 369.866 927 366C927 362.134 930.134 359 934 359C937.866 359 941 362.134 941 366Z" fill="#65C7E1"/>
<circle cx="913" cy="387" r="7" fill="#0B3261"/>
<circle cx="934" cy="387" r="7" fill="#0B3261"/>
<path d="M962 387C962 390.866 958.866 394 955 394C951.134 394 948 390.866 948 387C948 383.134 951.134 380 955 380C958.866 380 962 383.134 962 387Z" fill="#0B3261"/>
<path d="M962 366C962 369.866 958.866 373 955 373C951.134 373 948 369.866 948 366C948 362.134 951.134 359 955 359C958.866 359 962 362.134 962 366Z" fill="#0B3261"/>
<path d="M920 450C920 453.866 916.866 457 913 457C909.134 457 906 453.866 906 450C906 446.134 909.134 443 913 443C916.866 443 920 446.134 920 450Z" fill="#0B3261"/>
<circle cx="913" cy="408" r="7" fill="#0B3261"/>
<circle cx="934" cy="408" r="7" fill="#0B3261"/>
<path d="M962 408C962 411.866 958.866 415 955 415C951.134 415 948 411.866 948 408C948 404.134 951.134 401 955 401C958.866 401 962 404.134 962 408Z" fill="#0B3261"/>
<circle cx="913" cy="429" r="7" fill="#0B3261"/>
<circle cx="934" cy="429" r="7" fill="#0B3261"/>
<path d="M962 429C962 432.866 958.866 436 955 436C951.134 436 948 432.866 948 429C948 425.134 951.134 422 955 422C958.866 422 962 425.134 962 429Z" fill="#0B3261"/>
<circle cx="871" cy="260" r="7" fill="white"/>
<circle cx="892" cy="260" r="7" fill="white"/>
<path d="M920 260C920 263.866 916.866 267 913 267C909.134 267 906 263.866 906 260C906 256.134 909.134 253 913 253C916.866 253 920 256.134 920 260Z" fill="white"/>
<path d="M920 239C920 242.866 916.866 246 913 246C909.134 246 906 242.866 906 239C906 235.134 909.134 232 913 232C916.866 232 920 235.134 920 239Z" fill="white"/>
<path d="M878 323C878 326.866 874.866 330 871 330C867.134 330 864 326.866 864 323C864 319.134 867.134 316 871 316C874.866 316 878 319.134 878 323Z" fill="white"/>
<circle cx="871" cy="281" r="7" fill="white"/>
<circle cx="892" cy="281" r="7" fill="white"/>
<path d="M920 281C920 284.866 916.866 288 913 288C909.134 288 906 284.866 906 281C906 277.134 909.134 274 913 274C916.866 274 920 277.134 920 281Z" fill="white"/>
<circle cx="871" cy="302" r="7" fill="white"/>
<circle cx="892" cy="302" r="7" fill="white"/>
<path d="M920 302C920 305.866 916.866 309 913 309C909.134 309 906 305.866 906 302C906 298.134 909.134 295 913 295C916.866 295 920 298.134 920 302Z" fill="white"/>
<circle cx="855.5" cy="54.5" r="120.5" stroke="#57B2D7" stroke-width="40"/>
<circle cx="859" cy="51" r="103" stroke="#B9F1FF" stroke-width="20"/>
<circle cx="-55.5" cy="812.5" r="120.5" stroke="#0B3261" stroke-width="40"/>
<path d="M27.6503 458L84.171 609.411L-23 551.116L27.6503 458Z" fill="#B9F1FF"/>
<path d="M27.6503 458L84.171 609.411L-23 551.116L27.6503 458Z" fill="#B9F1FF"/>
<path d="M711.615 125.262L649 111.586L695.106 90.0001L711.615 125.262Z" fill="#B9F1FF"/>
<path d="M711.615 125.262L649 111.586L695.106 90.0001L711.615 125.262Z" fill="#B9F1FF"/>
<circle cx="659.5" cy="64.5" r="20.5" fill="#0B3261"/>
<circle cx="37.5" cy="651.5" r="20.5" fill="#57B2D7"/>
<defs>
<filter id="filter0_i_666_12142" x="-480.254" y="-403" width="1741.75" height="1700.5" filterUnits="userSpaceOnUse" color-interpolation-filters="sRGB">
<feFlood flood-opacity="0" result="BackgroundImageFix"/>
<feBlend mode="normal" in="SourceGraphic" in2="BackgroundImageFix" result="shape"/>
<feColorMatrix in="SourceAlpha" type="matrix" values="0 0 0 0 0 0 0 0 0 0 0 0 0 0 0 0 0 0 127 0" result="hardAlpha"/>
<feOffset dx="59" dy="-400"/>
<feGaussianBlur stdDeviation="100"/>
<feComposite in2="hardAlpha" operator="arithmetic" k2="-1" k3="1"/>
<feColorMatrix type="matrix" values="0 0 0 0 0.341176 0 0 0 0 0.698039 0 0 0 0 0.843137 0 0 0 1 0"/>
<feBlend mode="normal" in2="shape" result="effect1_innerShadow_666_12142"/>
</filter>
</defs>
</svg>
